Neude.sfdir
StartChar: quotedbl
Encoding: 34 34 116
Width: 725
VWidth: 60
Flags: W
HStem: 414.286 165.714<240.7 321.9 403.1 484.3>
VStem: 240.7 81.2002<414.286 580> 403.1 81.2002<414.286 580>
LayerCount: 2
Fore
SplineSet
484.299804688 580 m 1
 484.299804688 414.286132812 l 1
 403.099609375 414.286132812 l 1
 403.099609375 580 l 1
 484.299804688 580 l 1
321.900390625 580 m 1
 321.900390625 414.286132812 l 1
 240.700195312 414.286132812 l 1
 240.700195312 580 l 1
 321.900390625 580 l 1
EndSplineSet
Validated: 1
EndChar
StartChar: zero
Encoding: 48 48 418
Width: 725
VWidth: 0
Flags: W
HStem: 0 193.334<225.066 499.934> 497.143 82.8574<222.296 502.704>
VStem: 58 121.801<248.614 439.195> 545.199 121.801<248.614 439.195>
LayerCount: 2
Fore
SplineSet
220.400390625 580 m 2
 504.599609375 580 l 2
 594.291015625 580 667 468.711914062 667 331.4296875 c 2
 667 248.572265625 l 2
 667 111.290039062 576.114257812 0 464 0 c 2
 261 0 l 2
 148.885742188 0 58 111.290039062 58 248.572265625 c 2
 58 331.4296875 l 2
 58 468.711914062 130.709960938 580 220.400390625 580 c 2
261 497.142578125 m 2
 216.155273438 497.141601562 179.80078125 429.131835938 179.80078125 345.23828125 c 0
 179.80078125 261.344726562 216.155273438 193.334960938 261 193.333984375 c 2
 464 193.333984375 l 2
 508.844726562 193.334960938 545.19921875 261.344726562 545.19921875 345.23828125 c 0
 545.19921875 429.131835938 508.844726562 497.141601562 464 497.142578125 c 2
 261 497.142578125 l 2
EndSplineSet
Validated: 524289
EndChar
StartChar: four
Encoding: 52 52 42
Width: 725
VWidth: 60
Flags: W
HStem: 0 143.619<545.199 667> 30.3809 82.8574<478.5 545.199> 560 20G<150.684 560.184> 560 20G<150.684 560.184>
VStem: 545.199 121.801<0 30.3809 113.238 143.619>
LayerCount: 2
Fore
SplineSet
154.18359375 580 m 1x68
 560.18359375 580 l 1
 478.5 113.23828125 l 1
 545.19921875 113.23828125 l 1x68
 545.19921875 143.619140625 l 1
 667 143.619140625 l 1
 667 0 l 1
 545.19921875 0 l 1x88
 545.19921875 30.380859375 l 1
 58 30.380859375 l 1
 154.18359375 580 l 1x68
EndSplineSet
Validated: 524289
EndChar
StartChar: seven
Encoding: 55 55 2
Width: 725
VWidth: 60
Flags: W
HStem: 0 21G<159.5 569> 0 21G<159.5 569> 497.143 82.8574<58 246.5>
LayerCount: 2
Fore
SplineSet
58 580 m 1xa0
 667 580 l 1
 565.5 0 l 1
 159.5 0 l 1
 246.5 497.142578125 l 1
 58 497.142578125 l 1
 58 580 l 1xa0
EndSplineSet
Validated: 524289
EndChar
StartChar: colon
Encoding: 58 58 13
Width: 725
VWidth: 60
Flags: W
HStem: 0.000976562 82.8574<328.837 396.162> 331.429 82.8574<328.837 396.163>
VStem: 321.9 81.1992<6.53047 76.3286 337.958 407.756>
LayerCount: 2
Fore
SplineSet
362.5 82.8583984375 m 0
 384.91015625 82.8583984375 403.099609375 64.2978515625 403.099609375 41.4296875 c 0
 403.099609375 41.4296875 403.099609375 41.4287109375 403.099609375 41.4287109375 c 0
 403.098632812 18.560546875 384.91015625 0.0009765625 362.5 0.0009765625 c 0
 340.088867188 0.0009765625 321.900390625 18.560546875 321.900390625 41.4287109375 c 0
 321.900390625 41.4287109375 321.900390625 41.4296875 321.900390625 41.4296875 c 0
 321.900390625 64.2978515625 340.088867188 82.8583984375 362.5 82.8583984375 c 0
362.5 414.286132812 m 0
 384.911132812 414.286132812 403.099609375 395.725585938 403.099609375 372.857421875 c 0
 403.099609375 372.857421875 403.099609375 372.856445312 403.099609375 372.856445312 c 0
 403.099609375 349.98828125 384.91015625 331.428710938 362.5 331.428710938 c 0
 340.08984375 331.428710938 321.900390625 349.98828125 321.900390625 372.856445312 c 0
 321.900390625 372.856445312 321.900390625 372.857421875 321.900390625 372.857421875 c 0
 321.900390625 395.725585938 340.088867188 414.286132812 362.5 414.286132812 c 0
EndSplineSet
Validated: 524289
EndChar
StartChar: A
Encoding: 65 65 52
Width: 725
VWidth: 60
Flags: W
HStem: 0 21G<58 142.699 257.5 667> 0 21G<58 142.699 257.5 667> 30.3809 82.8574<159.016 241.184> 560 20G<156 569> 560 20G<156 569>
LayerCount: 2
Fore
SplineSet
159.5 580 m 1xb0
 565.5 580 l 1
 667 0 l 1
 261 0 l 1
 255.68359375 30.380859375 l 1
 144.515625 30.380859375 l 1
 139.19921875 0 l 1
 58 0 l 1
 159.5 580 l 1xb0
200.099609375 348.001953125 m 1
 159.015625 113.23828125 l 1
 241.18359375 113.23828125 l 1
 200.099609375 348.001953125 l 1
EndSplineSet
Validated: 524289
EndChar
StartChar: C
Encoding: 67 67 155
Width: 725
VWidth: 0
Flags: W
HStem: 0 21G<204.943 516.244> 0 21G<204.943 516.244> 497.143 82.8574<464 502.967>
VStem: 58 406<198.476 444.592>
LayerCount: 2
Fore
SplineSet
220.400390625 580 m 2xb0
 504.599609375 580 l 2
 560.904296875 580 610.510742188 536.13671875 639.64453125 469.5234375 c 1
 510.69140625 469.5234375 l 1
 497.483398438 486.920898438 481.380859375 497.142578125 464 497.142578125 c 1
 464 193.333984375 l 1
 481.380859375 193.333984375 497.483398438 203.555664062 510.69140625 220.953125 c 1
 665.74609375 220.953125 l 1
 654.524414062 96.6708984375 568.48828125 0 464 0 c 2
 261 0 l 2
 148.885742188 0 58 111.290039062 58 248.572265625 c 2
 58 331.4296875 l 2
 58 468.711914062 130.708984375 580 220.400390625 580 c 2xb0
EndSplineSet
Validated: 524289
EndChar
StartChar: F
Encoding: 70 70 19
Width: 725
VWidth: 60
Flags: W
HStem: 0 21G<58 464> 0 21G<58 464> 331.428 82.8574<464 545.199> 497.143 82.8574<464 667>
VStem: 58 406<0 331.428 414.285 497.143>
LayerCount: 2
Fore
SplineSet
58 580 m 1xb8
 667 580 l 1
 667 497.142578125 l 1
 464 497.142578125 l 1
 464 414.28515625 l 1
 545.19921875 414.28515625 l 1
 545.19921875 331.427734375 l 1
 464 331.427734375 l 1
 464 0 l 1
 58 0 l 1
 58 580 l 1xb8
EndSplineSet
Validated: 524289
EndChar
StartChar: G
Encoding: 71 71 170
Width: 725
VWidth: 0
Flags: W
HStem: 0 21G<204.943 667> 0 21G<204.943 667> 497.143 82.8574<464 502.967>
VStem: 58 406<198.476 444.592> 510.691 156.309<202.494 303.811>
LayerCount: 2
Fore
SplineSet
220.400390625 580 m 2xb8
 504.599609375 580 l 2
 560.904296875 580 610.510742188 536.13671875 639.64453125 469.5234375 c 1
 510.69140625 469.5234375 l 1
 497.483398438 486.920898438 481.380859375 497.142578125 464 497.142578125 c 1
 464 193.333984375 l 1
 481.380859375 193.333984375 497.483398438 203.555664062 510.69140625 220.953125 c 1
 510.69140625 303.810546875 l 1
 667 303.810546875 l 1
 667 0 l 1
 261 0 l 2
 148.885742188 0 58 111.290039062 58 248.572265625 c 2
 58 331.4296875 l 2
 58 468.711914062 130.708984375 580 220.400390625 580 c 2xb8
EndSplineSet
Validated: 1
EndChar
StartChar: I
Encoding: 73 73 27
Width: 725
VWidth: 60
Flags: W
HStem: 0 21G<159.5 565.5> 0 21G<159.5 565.5> 560 20G<159.5 565.5> 560 20G<159.5 565.5>
VStem: 159.5 406<0 580>
LayerCount: 2
Fore
SplineSet
159.5 580 m 1xa8
 565.5 580 l 1
 565.5 0 l 1
 159.5 0 l 1
 159.5 580 l 1xa8
EndSplineSet
Validated: 1
EndChar
StartChar: J
Encoding: 74 74 89
Width: 725
VWidth: 60
Flags: W
HStem: -0 21G<321.9 476.175> -0 21G<321.9 476.175> 560 20G<261 667> 560 20G<261 667>
VStem: 58 81.2012<205.593 248.572> 261 406<168.848 580>
LayerCount: 2
Fore
SplineSet
261 580 m 1xac
 667 580 l 1
 667 248.572265625 l 1
 667.728515625 248.572265625 l 1
 667.728515625 111.2890625 549.25 -0 403.099609375 -0 c 2
 321.900390625 -0 l 1
 321.900390625 0.0078125 l 1
 176.0859375 0.3779296875 58 111.518554688 58 248.572265625 c 1
 139.201171875 248.572265625 l 1
 139.201171875 248.544921875 l 2
 139.22265625 202.794921875 193.747070312 165.715820312 261 165.71484375 c 1
 261 580 l 1xac
EndSplineSet
Validated: 524289
EndChar
StartChar: K
Encoding: 75 75 90
Width: 725
VWidth: 60
Flags: W
HStem: 0 21G<58 464 494.332 667> 0 21G<58 464 494.332 667> 560 20G<58 464 585.801 667> 560 20G<58 464 585.801 667>
LayerCount: 2
Fore
SplineSet
58 580 m 1xa0
 464 580 l 1
 464 530.28515625 l 1
 585.80078125 580 l 1
 667 580 l 1
 667 497.142578125 l 1
 585.80078125 464 l 1
 667 0 l 1
 497.83203125 0 l 1
 464 193.333984375 l 1
 464 0 l 1
 58 0 l 1
 58 580 l 1xa0
EndSplineSet
Validated: 524289
EndChar
StartChar: M
Encoding: 77 77 78
Width: 725
VWidth: 60
Flags: W
HStem: 0 21G<58 464 545.199 667> 0 21G<58 464 545.199 667> 560 20G<58 504.6 504.6 667> 560 20G<58 504.6 504.6 667>
VStem: 58 406<0 497.143> 545.199 121.801<0 497.143>
LayerCount: 2
Fore
SplineSet
58 580 m 1xac
 464 580 l 1
 504.599609375 563.333984375 l 1
 545.19921875 580 l 1
 667 580 l 1
 667 0 l 1
 545.19921875 0 l 1
 545.19921875 497.142578125 l 1
 504.599609375 480.478515625 l 1
 464 497.142578125 l 1
 464 0 l 1
 58 0 l 1
 58 580 l 1xac
EndSplineSet
Validated: 1
EndChar
StartChar: O
Encoding: 79 79 7
Width: 725
VWidth: 60
Flags: W
HStem: 0 21G<204.943 520.057> 0 21G<204.943 520.057> 497.143 82.8574<464 502.704>
VStem: 545.199 121.801<248.614 439.195>
LayerCount: 2
Fore
SplineSet
220.400390625 580 m 2xb0
 504.599609375 580 l 2
 594.291015625 580 667 468.711914062 667 331.4296875 c 2
 667 248.572265625 l 2
 667 111.290039062 576.114257812 0 464 0 c 2
 261 0 l 2
 148.885742188 0 58 111.290039062 58 248.572265625 c 2
 58 331.4296875 l 2
 58 468.711914062 130.708984375 580 220.400390625 580 c 2xb0
464 497.142578125 m 1
 464 193.333984375 l 1
 508.844726562 193.334960938 545.19921875 261.344726562 545.19921875 345.23828125 c 0
 545.19921875 429.131835938 508.844726562 497.141601562 464 497.142578125 c 1
EndSplineSet
Validated: 524289
EndChar
StartChar: Q
Encoding: 81 81 154
Width: 725
VWidth: 0
Flags: W
HStem: 0 21G<204.972 464 464 520.028 536.801 667> 0 21G<204.972 464 464 520.028 536.801 667> 497.143 82.8574<464 502.694>
VStem: 545.199 121.801<248.632 439.164>
LayerCount: 2
Fore
SplineSet
220.400390625 580 m 0xb0
 261 580 l 1
 464 580 l 1
 464 0 l 1
 261 0 l 2
 148.944335938 0 58 111.360351562 58 248.571289062 c 0
 58 248.571289062 58 248.572265625 58 248.572265625 c 2
 58 331.4296875 l 2
 58 468.640625 130.755859375 580 220.400390625 580 c 0xb0
464 580 m 1
 504.599609375 580 l 2
 594.244140625 580 666.999023438 468.640625 667 331.4296875 c 2
 667 248.572265625 l 2
 667 248.572265625 667 248.572265625 667 248.571289062 c 0
 667 111.360351562 576.055664062 0 464 0 c 1
 464 193.333984375 l 1
 508.821289062 193.334960938 545.19921875 261.387695312 545.19921875 345.23828125 c 0
 545.19921875 429.088867188 508.821289062 497.141601562 464 497.142578125 c 1
 464 580 l 1
585.80078125 0 m 1
 464 49.71484375 l 1
 261 132.572265625 l 1
 261 215.427734375 l 1
 342.19921875 215.427734375 l 1
 464 165.71484375 l 1
 667 82.857421875 l 1
 667 0 l 1
 585.80078125 0 l 1
EndSplineSet
Validated: 5
EndChar
StartChar: S
Encoding: 83 83 419
Width: 725
VWidth: 0
Flags: W
HStem: -19.5996 71.2568<49.8799 129.716> 407.942 71.2578<493.784 573.62>
VStem: 49.8887 436.441<273.41 378.309> 137.17 436.441<81.2904 186.19>
LayerCount: 2
Fore
SplineSet
236.9296875 479.200195312 m 2xe0
 573.620117188 479.200195312 l 1
 573.620117188 407.942382812 l 1
 529.974609375 407.942382812 l 2
 505.870117188 407.942382812 486.330078125 389.33203125 486.330078125 366.375 c 0xe0
 486.345703125 355.95703125 490.428710938 345.889648438 497.842773438 338.228515625 c 0
 530.775390625 304.833007812 573.611328125 244.430664062 573.611328125 157.1484375 c 0
 573.0859375 96.5009765625 540.197265625 40.275390625 486.328125 7.9287109375 c 0
 456.470703125 -10.0322265625 421.884765625 -19.576171875 386.5703125 -19.599609375 c 0
 386.569335938 -19.599609375 386.569335938 -19.599609375 386.568359375 -19.599609375 c 2
 49.8798828125 -19.599609375 l 1
 49.8798828125 51.6572265625 l 1
 93.525390625 51.6572265625 l 2
 117.629882812 51.6572265625 137.169921875 70.267578125 137.169921875 93.224609375 c 0xd0
 137.154296875 103.643554688 133.071289062 113.709960938 125.657226562 121.37109375 c 0
 92.724609375 154.766601562 49.888671875 215.169921875 49.888671875 302.451171875 c 0
 50.4140625 363.098632812 83.302734375 419.325195312 137.171875 451.671875 c 0
 167.029296875 469.6328125 201.615234375 479.176757812 236.9296875 479.200195312 c 2xe0
EndSplineSet
Validated: 524289
EndChar
StartChar: U
Encoding: 85 85 109
Width: 725
VWidth: 60
Flags: W
HStem: 0 21G<249.026 475.974> 0 21G<249.026 475.974> 560 20G<58 464 545.201 667> 560 20G<58 464 545.201 667>
VStem: 58 406<211.04 580> 545.201 121.799<242.156 580>
LayerCount: 2
Fore
SplineSet
58 580 m 1xac
 464 580 l 1
 464 207.142578125 l 1
 508.845703125 207.141601562 545.201171875 244.23828125 545.201171875 290 c 2
 545.201171875 580 l 1
 667 580 l 1
 667 248.572265625 l 2
 667 111.2890625 548.84765625 -0 403.099609375 0 c 2
 321.900390625 0 l 2
 176.15234375 -0 58 111.459960938 58 248.953125 c 2
 58 580 l 1xac
EndSplineSet
Validated: 524321
EndChar
StartChar: V
Encoding: 86 86 119
Width: 725
VWidth: 60
Flags: W
HStem: 0 21G<156 569> 0 21G<156 569> 560 20G<58 467.5 582.301 667> 560 20G<58 467.5 582.301 667>
LayerCount: 2
Fore
SplineSet
58 580 m 1xa0
 464 580 l 1
 524.900390625 231.998046875 l 1
 585.80078125 580 l 1
 667 580 l 1
 565.5 0 l 1
 159.5 0 l 1
 58 580 l 1xa0
EndSplineSet
Validated: 1
EndChar
StartChar: X
Encoding: 88 88 36
Width: 725
VWidth: 60
Flags: W
HStem: 0 21G<58 146.21 254 667> 0 21G<58 146.21 254 667> 560 20G<58 471 578.79 667> 560 20G<58 471 578.79 667>
LayerCount: 2
Fore
SplineSet
58 580 m 1xa0
 464 580 l 1
 524.85546875 406.126953125 l 1
 585.80078125 580 l 1
 667 580 l 1
 565.42578125 290.21484375 l 1
 667 0 l 1
 261 0 l 1
 200.14453125 173.873046875 l 1
 139.19921875 0 l 1
 58 0 l 1
 159.57421875 289.78515625 l 1
 58 580 l 1xa0
EndSplineSet
Validated: 524289
EndChar
StartChar: Z
Encoding: 90 90 60
Width: 725
VWidth: 60
Flags: W
HStem: 0 82.8574<493 667> 497.143 82.8574<58 232>
LayerCount: 2
Fore
SplineSet
58 580 m 1
 667 580 l 1
 493 82.857421875 l 1
 667 82.857421875 l 1
 667 0 l 1
 58 0 l 1
 232 497.142578125 l 1
 58 497.142578125 l 1
 58 580 l 1
EndSplineSet
Validated: 1
EndChar
StartChar: underscore
Encoding: 95 95 51
Width: 725
VWidth: 60
Flags: W
HStem: -140 82.8574<0 725>
LayerCount: 2
Fore
SplineSet
725 -57.142578125 m 1
 725 -140 l 1
 0 -140 l 1
 0 -57.142578125 l 1
 725 -57.142578125 l 1
EndSplineSet
Validated: 1
EndChar
StartChar: IJ
Encoding: 306 306 162
Width: 725
VWidth: 0
Flags: W
HStem: -0 21G<321.9 476.175> -0 21G<321.9 476.175> 560 20G<58.001 179.8 261 667> 560 20G<58.001 179.8 261 667>
VStem: 58 81.2012<205.593 248.572> 58.001 121.799<331.43 580.121> 261 406<168.848 580>
LayerCount: 2
Fore
SplineSet
261 580 m 1xaa
 667 580 l 1
 667 248.572265625 l 1
 667.728515625 248.572265625 l 1
 667.728515625 111.2890625 549.25 -0 403.099609375 -0 c 2
 321.900390625 -0 l 1
 321.900390625 0.0078125 l 1
 176.0859375 0.3779296875 58 111.518554688 58 248.572265625 c 1
 139.201171875 248.572265625 l 1
 139.201171875 248.544921875 l 2
 139.22265625 202.794921875 193.747070312 165.715820312 261 165.71484375 c 1
 261 580 l 1xaa
179.799804688 580.12109375 m 1x06
 179.799804688 331.4296875 l 1
 58.0009765625 331.4296875 l 1
 58.0009765625 580.12109375 l 1
 179.799804688 580.12109375 l 1x06
EndSplineSet
Validated: 524289
EndChar
StartChar: uni16C9
Encoding: 5833 5833 87
Width: 725
VWidth: 60
Flags: W
HStem: 0 21G<335.55 389.45> 0 21G<335.55 389.45> 497.143 82.8574<155.439 569.561>
LayerCount: 2
Fore
SplineSet
362.5 0 m 1xa0
 139.19921875 165.71484375 l 1
 58 580 l 1
 667 580 l 1
 585.80078125 165.71484375 l 1
 362.5 0 l 1xa0
362.5 103.875 m 1
 513.51953125 211.219726562 l 1
 569.560546875 497.142578125 l 1
 155.439453125 497.142578125 l 1
 211.48046875 211.219726562 l 1
 362.5 103.875 l 1
EndSplineSet
Validated: 524289
EndChar
StartChar: uni2016
Encoding: 8214 8214 43
Width: 725
VWidth: 60
Flags: W
VStem: 240.7 81.2002<-141.651 721.651> 401.094 81.2002<-140 720>
LayerCount: 2
Fore
SplineSet
240.700195312 721.651367188 m 1
 321.900390625 721.651367188 l 1
 321.900390625 -141.651367188 l 1
 240.700195312 -141.651367188 l 1
 240.700195312 721.651367188 l 1
401.09375 720 m 1
 482.293945312 720 l 1
 482.293945312 -140 l 1
 401.09375 -140 l 1
 401.09375 720 l 1
EndSplineSet
Validated: 524289
EndChar
StartChar: underscoredbl
Encoding: 8215 8215 86
Width: 725
VWidth: 60
Flags: W
HStem: -248.571 82.8574<0 725> -82.8574 82.8574<0 725>
LayerCount: 2
Fore
SplineSet
725 0 m 1
 725 -82.857421875 l 1
 0 -82.857421875 l 1
 0 0 l 1
 725 0 l 1
725 -165.713867188 m 1
 725 -248.571289062 l 1
 0 -248.571289062 l 1
 0 -165.713867188 l 1
 725 -165.713867188 l 1
EndSplineSet
Validated: 1
EndChar
StartChar: ellipsis
Encoding: 8230 8230 71
Width: 725
VWidth: 60
Flags: W
HStem: -0 82.8574<166.437 233.762 328.837 396.163 491.238 558.563>
VStem: 159.5 81.1992<6.52949 76.3272> 321.9 81.1992<6.52949 76.3276> 484.301 81.1992<6.52949 76.3276>
CounterMasks: 1 70
LayerCount: 2
Fore
SplineSet
524.900390625 82.857421875 m 0
 547.310546875 82.857421875 565.5 64.296875 565.5 41.4287109375 c 0
 565.5 41.4287109375 565.5 41.427734375 565.5 41.427734375 c 0
 565.499023438 18.5595703125 547.310546875 0 524.900390625 -0 c 0
 502.489257812 0 484.30078125 18.5595703125 484.30078125 41.427734375 c 0
 484.30078125 41.427734375 484.30078125 41.4287109375 484.30078125 41.4287109375 c 0
 484.30078125 64.296875 502.489257812 82.857421875 524.900390625 82.857421875 c 0
362.5 82.857421875 m 0
 384.911132812 82.857421875 403.099609375 64.296875 403.099609375 41.4287109375 c 0
 403.099609375 41.4287109375 403.099609375 41.427734375 403.099609375 41.427734375 c 0
 403.099609375 18.5595703125 384.91015625 0 362.5 -0 c 0
 340.08984375 0 321.900390625 18.5595703125 321.900390625 41.427734375 c 0
 321.900390625 41.427734375 321.900390625 41.4287109375 321.900390625 41.4287109375 c 0
 321.900390625 64.296875 340.088867188 82.857421875 362.5 82.857421875 c 0
200.099609375 82.857421875 m 0
 222.510742188 82.8564453125 240.69921875 64.296875 240.69921875 41.4287109375 c 0
 240.69921875 41.4287109375 240.69921875 41.427734375 240.69921875 41.427734375 c 0
 240.69921875 18.5595703125 222.509765625 -0 200.099609375 -0 c 0
 177.689453125 -0 159.5 18.5595703125 159.5 41.427734375 c 0
 159.5 41.427734375 159.5 41.4287109375 159.5 41.4287109375 c 0
 159.5 64.296875 177.688476562 82.8564453125 200.099609375 82.857421875 c 0
EndSplineSet
Validated: 1
EndChar
StartChar: uni203E
Encoding: 8254 8254 82
Width: 725
VWidth: 60
Flags: W
HStem: 637.143 82.8574<0 725>
LayerCount: 2
Fore
SplineSet
725 720 m 1
 725 637.142578125 l 1
 0 637.142578125 l 1
 0 720 l 1
 725 720 l 1
EndSplineSet
Validated: 1
EndChar
StartChar: uni2161
Encoding: 8545 8545 404
Width: 725
VWidth: 0
Flags: W
HStem: 0 21G<98.5996 301.6 423.4 626.4> 0 21G<98.5996 301.6 423.4 626.4> 560 20G<98.5996 301.6 423.4 626.4> 560 20G<98.5996 301.6 423.4 626.4>
VStem: 98.5996 203<0 580> 423.4 203<0 580>
LayerCount: 2
Fore
SplineSet
98.599609375 580 m 1xac
 301.599609375 580 l 1
 301.599609375 0 l 1
 98.599609375 0 l 1
 98.599609375 580 l 1xac
423.400390625 580 m 1
 626.400390625 580 l 1
 626.400390625 0 l 1
 423.400390625 0 l 1
 423.400390625 580 l 1
EndSplineSet
Validated: 524289
EndChar
StartChar: uni2162
Encoding: 8546 8546 399
Width: 725
VWidth: 0
Flags: W
HStem: 0 21G<98.5996 220.4 301.6 423.4 504.6 626.4> 0 21G<98.5996 220.4 301.6 423.4 504.6 626.4> 560 20G<98.5996 220.4 301.6 423.4 504.6 626.4> 560 20G<98.5996 220.4 301.6 423.4 504.6 626.4>
VStem: 98.5996 121.801<0 580> 301.6 121.801<0 580> 504.6 121.801<0 580>
CounterMasks: 1 0e
LayerCount: 2
Fore
SplineSet
98.599609375 580 m 1xae
 220.400390625 580 l 1
 220.400390625 0 l 1
 98.599609375 0 l 1
 98.599609375 580 l 1xae
301.599609375 580 m 1
 423.400390625 580 l 1
 423.400390625 0 l 1
 301.599609375 0 l 1
 301.599609375 580 l 1
504.599609375 580 m 1
 626.400390625 580 l 1
 626.400390625 0 l 1
 504.599609375 0 l 1
 504.599609375 580 l 1
EndSplineSet
Validated: 1
EndChar
StartChar: uni2582
Encoding: 9602 9602 97
Width: 725
VWidth: 60
Flags: W
HStem: -140 215<0 725>
LayerCount: 2
Fore
SplineSet
725 75 m 1
 725 -140 l 1
 0 -140 l 1
 0 75 l 1
 725 75 l 1
EndSplineSet
Validated: 1
EndChar
StartChar: block
Encoding: 9608 9608 25
Width: 725
VWidth: 60
Flags: W
VStem: 0 725<-140 720>
LayerCount: 2
Fore
SplineSet
725 720 m 1
 725 -140 l 1
 0 -140 l 1
 0 720 l 1
 725 720 l 1
EndSplineSet
Validated: 1
EndChar
StartChar: uni258A
Encoding: 9610 9610 91
Width: 725
VWidth: 60
Flags: W
VStem: 0 543.75<-140 720>
LayerCount: 2
Fore
SplineSet
543.75 720 m 1
 543.75 -140 l 1
 0 -140 l 1
 0 720 l 1
 543.75 720 l 1
EndSplineSet
Validated: 1
EndChar
StartChar: lfblock
Encoding: 9612 9612 47
Width: 725
VWidth: 60
Flags: W
VStem: 0 362.5<-140 720>
LayerCount: 2
Fore
SplineSet
362.5 720 m 1
 362.5 -140 l 1
 0 -140 l 1
 0 720 l 1
 362.5 720 l 1
EndSplineSet
Validated: 524289
EndChar
StartChar: uni258D
Encoding: 9613 9613 66
Width: 725
VWidth: 60
Flags: W
VStem: 0 241.667<-140 720>
LayerCount: 2
Fore
SplineSet
241.666992188 720 m 1
 241.666992188 -140 l 1
 0 -140 l 1
 0 720 l 1
 241.666992188 720 l 1
EndSplineSet
Validated: 524289
EndChar
StartChar: uni258F
Encoding: 9615 9615 73
Width: 725
VWidth: 60
Flags: W
VStem: 0 90.625<-140 720>
LayerCount: 2
Fore
SplineSet
90.625 720 m 1
 90.625 -140 l 1
 0 -140 l 1
 0 720 l 1
 90.625 720 l 1
EndSplineSet
Validated: 1
EndChar
StartChar: ltshade
Encoding: 9617 9617 81
Width: 725
VWidth: 60
Flags: W
HStem: -54 86<0 72.5 145 217.5 290 362.5 435 507.5 580 652.5> 118 86<0 72.5 145 217.5 290 362.5 435 507.5 580 652.5> 290 86<0 72.5 145 217.5 290 362.5 435 507.5 580 652.5> 462 86<0 72.5 145 217.5 290 362.5 435 507.5 580 652.5> 634 86<0 72.5 145 217.5 290 362.5 435 507.5 580 652.5>
VStem: 0 72.5<-54 32 118 204 290 376 462 548 634 720> 145 72.5<-54 32 118 204 290 376 462 548 634 720> 290 72.5<-54 32 118 204 290 376 462 548 634 720> 435 72.5<-54 32 118 204 290 376 462 548 634 720> 580 72.5<-54 32 118 204 290 376 462 548 634 720>
LayerCount: 2
Fore
SplineSet
0 720 m 1
 72.5 720 l 1
 72.5 634 l 1
 0 634 l 1
 0 720 l 1
145 720 m 1
 217.5 720 l 1
 217.5 634 l 1
 145 634 l 1
 145 720 l 1
290 720 m 1
 362.5 720 l 1
 362.5 634 l 1
 290 634 l 1
 290 720 l 1
435 720 m 1
 507.5 720 l 1
 507.5 634 l 1
 435 634 l 1
 435 720 l 1
580 720 m 1
 652.5 720 l 1
 652.5 634 l 1
 580 634 l 1
 580 720 l 1
0 548 m 1
 72.5 548 l 1
 72.5 462 l 1
 0 462 l 1
 0 548 l 1
145 548 m 1
 217.5 548 l 1
 217.5 462 l 1
 145 462 l 1
 145 548 l 1
290 548 m 1
 362.5 548 l 1
 362.5 462 l 1
 290 462 l 1
 290 548 l 1
435 548 m 1
 507.5 548 l 1
 507.5 462 l 1
 435 462 l 1
 435 548 l 1
580 548 m 1
 652.5 548 l 1
 652.5 462 l 1
 580 462 l 1
 580 548 l 1
0 376 m 1
 72.5 376 l 1
 72.5 290 l 1
 0 290 l 1
 0 376 l 1
145 376 m 1
 217.5 376 l 1
 217.5 290 l 1
 145 290 l 1
 145 376 l 1
290 376 m 1
 362.5 376 l 1
 362.5 290 l 1
 290 290 l 1
 290 376 l 1
435 376 m 1
 507.5 376 l 1
 507.5 290 l 1
 435 290 l 1
 435 376 l 1
580 376 m 1
 652.5 376 l 1
 652.5 290 l 1
 580 290 l 1
 580 376 l 1
0 204 m 1
 72.5 204 l 1
 72.5 118 l 1
 0 118 l 1
 0 204 l 1
145 204 m 1
 217.5 204 l 1
 217.5 118 l 1
 145 118 l 1
 145 204 l 1
290 204 m 1
 362.5 204 l 1
 362.5 118 l 1
 290 118 l 1
 290 204 l 1
435 204 m 1
 507.5 204 l 1
 507.5 118 l 1
 435 118 l 1
 435 204 l 1
580 204 m 1
 652.5 204 l 1
 652.5 118 l 1
 580 118 l 1
 580 204 l 1
0 32 m 1
 72.5 32 l 1
 72.5 -54 l 1
 0 -54 l 1
 0 32 l 1
145 32 m 1
 217.5 32 l 1
 217.5 -54 l 1
 145 -54 l 1
 145 32 l 1
290 32 m 1
 362.5 32 l 1
 362.5 -54 l 1
 290 -54 l 1
 290 32 l 1
435 32 m 1
 507.5 32 l 1
 507.5 -54 l 1
 435 -54 l 1
 435 32 l 1
580 32 m 1
 652.5 32 l 1
 652.5 -54 l 1
 580 -54 l 1
 580 32 l 1
EndSplineSet
Validated: 1
EndChar
StartChar: shade
Encoding: 9618 9618 85
Width: 725
VWidth: 60
Flags: W
HStem: -140 86<72.5 145 217.5 290 362.5 435 507.5 580 652.5 725> -54 86<0 72.5 145 217.5 290 362.5 435 507.5 580 652.5> 32 86<72.5 145 217.5 290 362.5 435 507.5 580 652.5 725> 118 86<0 72.5 145 217.5 290 362.5 435 507.5 580 652.5> 204 86<72.5 145 217.5 290 362.5 435 507.5 580 652.5 725> 290 86<0 72.5 145 217.5 290 362.5 435 507.5 580 652.5> 376 86<72.5 145 217.5 290 362.5 435 507.5 580 652.5 725> 462 86<0 72.5 145 217.5 290 362.5 435 507.5 580 652.5> 548 86<72.5 145 217.5 290 362.5 435 507.5 580 652.5 725> 634 86<0 72.5 145 217.5 290 362.5 435 507.5 580 652.5>
VStem: 0 72.5<-54 32 118 204 290 376 462 548 634 720> 72.5 72.5<-140 -54 32 118 204 290 376 462 548 634> 145 72.5<-54 32 118 204 290 376 462 548 634 720> 217.5 72.5<-140 -54 32 118 204 290 376 462 548 634> 290 72.5<-54 32 118 204 290 376 462 548 634 720> 362.5 72.5<-140 -54 32 118 204 290 376 462 548 634> 435 72.5<-54 32 118 204 290 376 462 548 634 720> 507.5 72.5<-140 -54 32 118 204 290 376 462 548 634> 580 72.5<-54 32 118 204 290 376 462 548 634 720> 652.5 72.5<-140 -54 32 118 204 290 376 462 548 634>
LayerCount: 2
Fore
SplineSet
0 720 m 1x0060
 72.5 720 l 1x0060
 72.5 634 l 1x00a0
 0 634 l 1
 0 720 l 1x0060
72.5 634 m 1x00a0
 145 634 l 1x0090
 145 548 l 1x0110
 72.5 548 l 1x0120
 72.5 634 l 1x00a0
145 634 m 1
 145 720 l 1
 217.5 720 l 1x0048
 217.5 634 l 1x0088
 145 634 l 1
217.5 634 m 1x0088
 290 634 l 1x0084
 290 548 l 1x0104
 217.5 548 l 1x0108
 217.5 634 l 1x0088
290 634 m 1
 290 720 l 1
 362.5 720 l 1x0042
 362.5 634 l 1x0082
 290 634 l 1
362.5 634 m 1x0082
 435 634 l 1x0081
 435 548 l 1x0101
 362.5 548 l 1x0102
 362.5 634 l 1x0082
435 634 m 1
 435 720 l 1
 507.5 720 l 1x004080
 507.5 634 l 1x008080
 435 634 l 1
507.5 634 m 1x008080
 580 634 l 1x008040
 580 548 l 1x010040
 507.5 548 l 1x010080
 507.5 634 l 1x008080
580 634 m 1
 580 720 l 1
 652.5 720 l 1x004020
 652.5 634 l 1x008020
 580 634 l 1
652.5 634 m 1x008020
 725 634 l 1
 725 548 l 1x008010
 652.5 548 l 1x010020
 652.5 634 l 1x008020
652.5 548 m 1x010020
 652.5 462 l 1x020020
 580 462 l 1x020040
 580 548 l 1x010040
 652.5 548 l 1x010020
652.5 462 m 1
 725 462 l 1
 725 376 l 1x020010
 652.5 376 l 1x040020
 652.5 462 l 1
652.5 376 m 1x040020
 652.5 290 l 1x080020
 580 290 l 1x080040
 580 376 l 1x040040
 652.5 376 l 1x040020
652.5 290 m 1
 725 290 l 1
 725 204 l 1x080010
 652.5 204 l 1x100020
 652.5 290 l 1
652.5 204 m 1x100020
 652.5 118 l 1x200020
 580 118 l 1x200040
 580 204 l 1x100040
 652.5 204 l 1x100020
652.5 118 m 1
 725 118 l 1
 725 32 l 1x200010
 652.5 32 l 1x400020
 652.5 118 l 1
652.5 32 m 1x400020
 652.5 -54 l 1x800020
 580 -54 l 1x800040
 580 32 l 1x400040
 652.5 32 l 1x400020
652.5 -54 m 1
 725 -54 l 1
 725 -140 l 1
 652.5 -140 l 1x800010
 652.5 -54 l 1
580 -54 m 1x800040
 580 -140 l 1
 507.5 -140 l 1x800040
 507.5 -54 l 1x800080
 580 -54 l 1x800040
507.5 -54 m 1x800080
 435 -54 l 1x8001
 435 32 l 1x4001
 507.5 32 l 1x400080
 507.5 -54 l 1x800080
435 -54 m 1
 435 -140 l 1
 362.5 -140 l 1x8001
 362.5 -54 l 1x8002
 435 -54 l 1
362.5 -54 m 1x8002
 290 -54 l 1x8004
 290 32 l 1x4004
 362.5 32 l 1x4002
 362.5 -54 l 1x8002
290 -54 m 1
 290 -140 l 1
 217.5 -140 l 1x8004
 217.5 -54 l 1x8008
 290 -54 l 1
217.5 -54 m 1x8008
 145 -54 l 1x8010
 145 32 l 1x4010
 217.5 32 l 1x4008
 217.5 -54 l 1x8008
145 -54 m 1
 145 -140 l 1
 72.5 -140 l 1x8010
 72.5 -54 l 1x8020
 145 -54 l 1
72.5 -54 m 1x8020
 0 -54 l 1
 0 32 l 1
 72.5 32 l 1x4020
 72.5 -54 l 1x8020
72.5 32 m 1
 72.5 118 l 1x2020
 145 118 l 1x2010
 145 32 l 1x4010
 72.5 32 l 1
72.5 118 m 1
 0 118 l 1
 0 204 l 1
 72.5 204 l 1x1020
 72.5 118 l 1
72.5 204 m 1
 72.5 290 l 1x0820
 145 290 l 1x0810
 145 204 l 1x1010
 72.5 204 l 1
72.5 290 m 1
 0 290 l 1
 0 376 l 1
 72.5 376 l 1x0420
 72.5 290 l 1
72.5 376 m 1
 72.5 462 l 1x0220
 145 462 l 1x0210
 145 376 l 1x0410
 72.5 376 l 1
72.5 462 m 1
 0 462 l 1
 0 548 l 1
 72.5 548 l 1x0120
 72.5 462 l 1
145 462 m 1x0210
 145 548 l 1x0110
 217.5 548 l 1x0108
 217.5 462 l 1x0208
 145 462 l 1x0210
217.5 462 m 1x0208
 290 462 l 1x0204
 290 376 l 1x0404
 217.5 376 l 1x0408
 217.5 462 l 1x0208
290 462 m 1
 290 548 l 1x0104
 362.5 548 l 1x0102
 362.5 462 l 1x0202
 290 462 l 1
362.5 462 m 1x0202
 435 462 l 1x0201
 435 376 l 1x0401
 362.5 376 l 1x0402
 362.5 462 l 1x0202
435 462 m 1
 435 548 l 1x0101
 507.5 548 l 1x010080
 507.5 462 l 1x020080
 435 462 l 1
507.5 462 m 1x020080
 580 462 l 1x020040
 580 376 l 1x040040
 507.5 376 l 1x040080
 507.5 462 l 1x020080
507.5 376 m 1x040080
 507.5 290 l 1x080080
 435 290 l 1x0801
 435 376 l 1x0401
 507.5 376 l 1x040080
507.5 290 m 1
 580 290 l 1x080040
 580 204 l 1x100040
 507.5 204 l 1x100080
 507.5 290 l 1
507.5 204 m 1x100080
 507.5 118 l 1x200080
 435 118 l 1x2001
 435 204 l 1x1001
 507.5 204 l 1x100080
507.5 118 m 1
 580 118 l 1x200040
 580 32 l 1x400040
 507.5 32 l 1x400080
 507.5 118 l 1
435 118 m 1x2001
 435 32 l 1x4001
 362.5 32 l 1x4002
 362.5 118 l 1x2002
 435 118 l 1x2001
362.5 118 m 1x2002
 290 118 l 1x2004
 290 204 l 1x1004
 362.5 204 l 1x1002
 362.5 118 l 1x2002
290 118 m 1
 290 32 l 1x4004
 217.5 32 l 1x4008
 217.5 118 l 1x2008
 290 118 l 1
217.5 118 m 1x2008
 145 118 l 1x2010
 145 204 l 1x1010
 217.5 204 l 1x1008
 217.5 118 l 1x2008
217.5 204 m 1x1008
 217.5 290 l 1x0808
 290 290 l 1x0804
 290 204 l 1x1004
 217.5 204 l 1x1008
217.5 290 m 1
 145 290 l 1x0810
 145 376 l 1x0410
 217.5 376 l 1x0408
 217.5 290 l 1
290 290 m 1x0804
 290 376 l 1x0404
 362.5 376 l 1x0402
 362.5 290 l 1x0802
 290 290 l 1x0804
362.5 290 m 1x0802
 435 290 l 1x0801
 435 204 l 1x1001
 362.5 204 l 1x1002
 362.5 290 l 1x0802
EndSplineSet
Validated: 524293
EndChar
StartChar: uni2596
Encoding: 9622 9622 46
Width: 725
VWidth: 60
Flags: W
HStem: 0 290<58 362.5>
VStem: 58 304.5<0 290>
LayerCount: 2
Fore
SplineSet
362.5 290 m 1
 362.5 0 l 1
 58 0 l 1
 58 290 l 1
 362.5 290 l 1
EndSplineSet
Validated: 524289
EndChar
StartChar: uni259A
Encoding: 9626 9626 30
Width: 725
VWidth: 60
Flags: W
HStem: 0 290<362.5 667> 290 290<58 362.5>
VStem: 58 304.5<290 580> 362.5 304.5<0 290>
LayerCount: 2
Fore
SplineSet
667 290 m 1x90
 667 0 l 1
 362.5 0 l 1x90
 362.5 290 l 1xa0
 667 290 l 1x90
362.5 580 m 1x60
 362.5 290 l 1xa0
 58 290 l 1
 58 580 l 1
 362.5 580 l 1x60
EndSplineSet
Validated: 524293
EndChar
StartChar: uni259C
Encoding: 9628 9628 16
Width: 725
VWidth: 60
Flags: W
HStem: 0 21G<362.5 667> 0 21G<362.5 667> 290 290<58 362.5>
VStem: 362.5 304.5<0 290>
LayerCount: 2
Fore
SplineSet
58 580 m 1xb0
 667 580 l 1
 667 0 l 1
 362.5 0 l 1
 362.5 290 l 1
 58 290 l 1
 58 580 l 1xb0
EndSplineSet
Validated: 1
EndChar
StartChar: uni259D
Encoding: 9629 9629 6
Width: 725
VWidth: 60
Flags: W
HStem: 290 290<362.5 667>
VStem: 362.5 304.5<290 580>
LayerCount: 2
Fore
SplineSet
667 580 m 1
 667 290 l 1
 362.5 290 l 1
 362.5 580 l 1
 667 580 l 1
EndSplineSet
Validated: 524289
EndChar
StartChar: uni259E
Encoding: 9630 9630 17
Width: 725
VWidth: 60
Flags: W
HStem: 0 290<58 362.5> 290 290<362.5 667>
VStem: 58 304.5<0 290> 362.5 304.5<290 580>
LayerCount: 2
Fore
SplineSet
362.5 290 m 1xa0
 362.5 0 l 1
 58 0 l 1
 58 290 l 1
 362.5 290 l 1xa0
667 580 m 1x50
 667 290 l 1x50
 362.5 290 l 1xa0
 362.5 580 l 1
 667 580 l 1x50
EndSplineSet
Validated: 524293
EndChar
StartChar: uni259F
Encoding: 9631 9631 105
Width: 725
VWidth: 60
Flags: W
HStem: 0 290<58 362.5> 560 20G<362.5 667> 560 20G<362.5 667>
VStem: 362.5 304.5<290 580>
LayerCount: 2
Fore
SplineSet
362.5 580 m 1xd0
 667 580 l 1
 667 0 l 1
 58 0 l 1
 58 290 l 1
 362.5 290 l 1
 362.5 580 l 1xd0
EndSplineSet
Validated: 1
EndChar
StartChar: filledbox
Encoding: 9632 9632 20
Width: 725
VWidth: 60
Flags: W
HStem: 0 21G<58 667> 0 21G<58 667> 560 20G<58 667> 560 20G<58 667>
VStem: 58 609<0 580>
LayerCount: 2
Fore
SplineSet
58 580 m 1xa8
 667 580 l 1
 667 0 l 1
 58 0 l 1
 58 580 l 1xa8
EndSplineSet
Validated: 1
EndChar
StartChar: uni2610
Encoding: 9744 9744 56
Width: 725
VWidth: 60
Flags: W
HStem: 0 82.8574<139.199 585.801> 497.143 82.8574<139.199 585.801>
VStem: 58 81.1992<82.8574 497.143> 585.801 81.1992<82.8574 497.143>
LayerCount: 2
Fore
SplineSet
58 580 m 1
 667 580 l 1
 667 0 l 1
 58 0 l 1
 58 580 l 1
139.19921875 497.142578125 m 1
 139.19921875 82.857421875 l 1
 585.80078125 82.857421875 l 1
 585.80078125 497.142578125 l 1
 139.19921875 497.142578125 l 1
EndSplineSet
Validated: 1
EndChar
StartChar: uni2616
Encoding: 9750 9750 48
Width: 725
VWidth: 60
Flags: W
HStem: 0 82.8574<155.439 569.561> 560 20G<335.55 389.45> 560 20G<335.55 389.45>
LayerCount: 2
Fore
SplineSet
362.5 580 m 1xc0
 585.80078125 414.28515625 l 1
 667 0 l 1
 58 0 l 1
 139.19921875 414.28515625 l 1
 362.5 580 l 1xc0
362.5 476.125 m 1
 211.48046875 368.780273438 l 1
 155.439453125 82.857421875 l 1
 569.560546875 82.857421875 l 1
 513.51953125 368.780273438 l 1
 362.5 476.125 l 1
EndSplineSet
Validated: 524289
EndChar
StartChar: uni2617
Encoding: 9751 9751 75
Width: 725
VWidth: 60
Flags: W
HStem: 0 21G<58 667> 0 21G<58 667> 560 20G<335.55 389.45> 560 20G<335.55 389.45>
LayerCount: 2
Fore
SplineSet
362.5 580 m 1xa0
 585.80078125 414.28515625 l 1
 667 0 l 1
 58 0 l 1
 139.19921875 414.28515625 l 1
 362.5 580 l 1xa0
EndSplineSet
Validated: 1
EndChar
StartChar: uni2631
Encoding: 9777 9777 67
Width: 725
VWidth: 60
Flags: W
HStem: 41.4287 82.8574<58 667> 248.571 82.8574<58 667> 455.714 82.8574<58 301.6 423.4 667>
CounterMasks: 1 e0
LayerCount: 2
Fore
SplineSet
667 331.428710938 m 1
 667 248.571289062 l 1
 58 248.571289062 l 1
 58 331.428710938 l 1
 667 331.428710938 l 1
301.599609375 538.571289062 m 1
 301.599609375 455.713867188 l 1
 58 455.713867188 l 1
 58 538.571289062 l 1
 301.599609375 538.571289062 l 1
667 538.571289062 m 1
 667 455.713867188 l 1
 423.400390625 455.713867188 l 1
 423.400390625 538.571289062 l 1
 667 538.571289062 l 1
667 124.286132812 m 1
 667 41.4287109375 l 1
 58 41.4287109375 l 1
 58 124.286132812 l 1
 667 124.286132812 l 1
EndSplineSet
Validated: 1
EndChar
StartChar: uni2632
Encoding: 9778 9778 24
Width: 725
VWidth: 60
Flags: W
HStem: 41.4287 82.8574<58 667> 248.571 82.8574<58 301.6 423.4 667> 455.714 82.8574<58 667>
CounterMasks: 1 e0
LayerCount: 2
Fore
SplineSet
301.599609375 331.428710938 m 1
 301.599609375 248.571289062 l 1
 58 248.571289062 l 1
 58 331.428710938 l 1
 301.599609375 331.428710938 l 1
667 331.428710938 m 1
 667 248.571289062 l 1
 423.400390625 248.571289062 l 1
 423.400390625 331.428710938 l 1
 667 331.428710938 l 1
667 124.286132812 m 1
 667 41.4287109375 l 1
 58 41.4287109375 l 1
 58 124.286132812 l 1
 667 124.286132812 l 1
667 538.571289062 m 1
 667 455.713867188 l 1
 58 455.713867188 l 1
 58 538.571289062 l 1
 667 538.571289062 l 1
EndSplineSet
Validated: 1
EndChar
StartChar: uni2691
Encoding: 9873 9873 96
Width: 725
VWidth: 60
Flags: W
HStem: 0 21G<58 139.199> 0 21G<58 139.199> 165.715 414.285<139.199 667>
VStem: 58 81.1992<0 165.715>
LayerCount: 2
Fore
SplineSet
58 580 m 1xb0
 667 580 l 1
 667 165.71484375 l 1
 139.19921875 165.71484375 l 1
 139.19921875 0 l 1
 58 0 l 1
 58 580 l 1xb0
EndSplineSet
Validated: 1
EndChar
StartChar: uni26EB
Encoding: 9963 9963 65
Width: 725
VWidth: 60
Flags: W
HStem: 0 21G<58 139.199 585.801 667> 0 21G<58 139.199 585.801 667> 331.428 82.8574<139.199 220.4 504.6 585.801> 497.143 82.8574<301.6 423.4>
VStem: 58 81.1992<0 331.428> 220.4 81.1992<414.285 497.143> 423.4 81.1992<414.285 497.143> 585.801 81.1992<0 331.428>
LayerCount: 2
Fore
SplineSet
220.400390625 580 m 1xbf
 504.599609375 580 l 1
 504.599609375 414.28515625 l 1
 667 414.28515625 l 1
 667 0 l 1
 585.80078125 0 l 1
 585.80078125 331.427734375 l 1
 423.400390625 331.427734375 l 1
 423.400390625 497.142578125 l 1
 301.599609375 497.142578125 l 1
 301.599609375 331.427734375 l 1
 139.19921875 331.427734375 l 1
 139.19921875 0 l 1
 58 0 l 1
 58 414.28515625 l 1
 220.400390625 414.28515625 l 1
 220.400390625 580 l 1xbf
EndSplineSet
Validated: 524289
EndChar
StartChar: uni26FF
Encoding: 9983 9983 11
Width: 725
VWidth: 60
Flags: W
HStem: 0 21G<58 139.199> 0 21G<58 139.199> 165.715 82.8574<139.199 585.801> 331.428 82.8574<139.199 585.801> 497.143 82.8574<139.199 585.801>
VStem: 58 81.1992<0 165.715 248.572 331.428 414.285 497.143> 585.801 81.1992<248.572 331.428 414.285 497.143>
LayerCount: 2
Fore
SplineSet
58 580 m 1xbe
 667 580 l 1
 667 165.71484375 l 1
 139.19921875 165.71484375 l 1
 139.19921875 0 l 1
 58 0 l 1
 58 580 l 1xbe
139.19921875 497.142578125 m 1
 139.19921875 414.28515625 l 1
 585.80078125 414.28515625 l 1
 585.80078125 497.142578125 l 1
 139.19921875 497.142578125 l 1
139.19921875 331.427734375 m 1
 139.19921875 248.572265625 l 1
 585.80078125 248.572265625 l 1
 585.80078125 331.427734375 l 1
 139.19921875 331.427734375 l 1
EndSplineSet
Validated: 1
EndChar
StartChar: uni271A
Encoding: 10010 10010 21
Width: 725
VWidth: 60
Flags: W
HStem: 0 21G<240.699 484.301> 0 21G<240.699 484.301> 165.234 248.57<58 240.699 484.301 667> 560 20G<240.699 484.301> 560 20G<240.699 484.301>
VStem: 240.699 243.602<0 165.234 413.805 580>
LayerCount: 2
Fore
SplineSet
240.69921875 580 m 1xb4
 484.30078125 580 l 1
 484.30078125 413.8046875 l 1
 667 413.8046875 l 1
 667 165.234375 l 1
 484.30078125 165.234375 l 1
 484.30078125 0 l 1
 240.69921875 0 l 1
 240.69921875 165.234375 l 1
 58 165.234375 l 1
 58 413.8046875 l 1
 240.69921875 413.8046875 l 1
 240.69921875 580 l 1xb4
EndSplineSet
Validated: 524289
EndChar
StartChar: uni271B
Encoding: 10011 10011 103
Width: 725
VWidth: 60
Flags: W
HStem: 0 217.5<217.5 290 435 507.5> 145 72.5<72.5 217.5 507.5 652.5> 362.5 217.5<217.5 290 435 507.5> 362.5 72.5<72.5 217.5 507.5 652.5>
VStem: 72.5 217.5<145 217.5 362.5 435> 217.5 72.5<0 145 435 580> 435 217.5<145 217.5 362.5 435> 435 72.5<0 145 435 580>
LayerCount: 2
Fore
SplineSet
217.5 580 m 1x24
 290 580 l 1x24
 290 362.5 l 1x28
 72.5 362.5 l 1
 72.5 435 l 1x18
 217.5 435 l 1x14
 217.5 580 l 1x24
435 580 m 1x21
 507.5 580 l 1x21
 507.5 435 l 1x11
 652.5 435 l 1
 652.5 362.5 l 1x12
 435 362.5 l 1x22
 435 580 l 1x21
72.5 217.5 m 1x48
 290 217.5 l 1x88
 290 0 l 1
 217.5 0 l 1x84
 217.5 145 l 1x44
 72.5 145 l 1
 72.5 217.5 l 1x48
435 217.5 m 1x82
 652.5 217.5 l 1
 652.5 145 l 1x42
 507.5 145 l 1x41
 507.5 0 l 1
 435 0 l 1x81
 435 217.5 l 1x82
EndSplineSet
Validated: 1
EndChar
StartChar: uni271C
Encoding: 10012 10012 70
Width: 725
VWidth: 60
Flags: W
HStem: 0 21G<199.375 217.5 290 435 507.5 525.625> 0 21G<199.375 217.5 290 435 507.5 525.625> 126.875 18.125<72.5 199.375 525.625 652.5> 217.5 145<72.5 290 435 652.5> 435 18.125<72.5 199.375 525.625 652.5> 560 20G<199.375 217.5 290 435 507.5 525.625> 560 20G<199.375 217.5 290 435 507.5 525.625>
VStem: 199.375 18.125<0 126.875 453.125 580> 290 145<0 217.5 362.5 580> 507.5 18.125<0 126.875 453.125 580>
CounterMasks: 1 01c0
LayerCount: 2
Fore
SplineSet
199.375 580 m 1x3dc0
 217.5 580 l 1
 217.5 435 l 1
 72.5 435 l 1
 72.5 453.125 l 1
 199.375 453.125 l 1
 199.375 580 l 1x3dc0
290 580 m 1
 435 580 l 1
 435 362.5 l 1
 652.5 362.5 l 1
 652.5 217.5 l 1
 435 217.5 l 1
 435 0 l 1
 290 0 l 1xbdc0
 290 217.5 l 1
 72.5 217.5 l 1
 72.5 362.5 l 1
 290 362.5 l 1
 290 580 l 1
507.5 580 m 1
 525.625 580 l 1
 525.625 453.125 l 1
 652.5 453.125 l 1
 652.5 435 l 1
 507.5 435 l 1
 507.5 580 l 1
72.5 145 m 1
 217.5 145 l 1
 217.5 0 l 1
 199.375 0 l 1
 199.375 126.875 l 1
 72.5 126.875 l 1
 72.5 145 l 1
507.5 145 m 1
 652.5 145 l 1
 652.5 126.875 l 1
 525.625 126.875 l 1
 525.625 0 l 1
 507.5 0 l 1
 507.5 145 l 1
EndSplineSet
Validated: 524289
EndChar
StartChar: uni271F
Encoding: 10015 10015 110
Width: 725
VWidth: 60
Flags: W
HStem: 0 82.8574<321.9 403.1> 248.572 248.57<159.5 240.699 484.299 565.5> 414.285 165.715<240.699 321.9 403.1 484.299> 497.143 82.8574<321.9 403.1>
VStem: 159.5 81.1992<331.428 414.285> 240.699 81.2012<82.8574 248.572> 403.1 81.1992<82.8574 248.572> 484.299 81.2012<331.428 414.285>
LayerCount: 2
Fore
SplineSet
240.69921875 580 m 1xa4
 484.298828125 580 l 1xa5
 484.298828125 497.142578125 l 1
 565.5 497.142578125 l 1
 565.5 248.572265625 l 1xc5
 484.298828125 248.572265625 l 1xc2
 484.298828125 0 l 1
 240.69921875 0 l 1
 240.69921875 248.572265625 l 1xc5
 159.5 248.572265625 l 1
 159.5 497.142578125 l 1xc8
 240.69921875 497.142578125 l 1xc4
 240.69921875 580 l 1xa4
321.900390625 497.142578125 m 1x96
 321.900390625 414.28515625 l 1xa6
 240.69921875 414.28515625 l 1
 240.69921875 331.427734375 l 1xa8
 321.900390625 331.427734375 l 1
 321.900390625 82.857421875 l 1
 403.099609375 82.857421875 l 1
 403.099609375 331.427734375 l 1xa6
 484.298828125 331.427734375 l 1
 484.298828125 414.28515625 l 1xa1
 403.099609375 414.28515625 l 1xa2
 403.099609375 497.142578125 l 1
 321.900390625 497.142578125 l 1x96
EndSplineSet
Validated: 524289
EndChar
StartChar: uniA78A
Encoding: 42890 42890 403
Width: 725
VWidth: 0
Flags: W
HStem: 82.8574 82.8564<240.7 484.3> 248.571 82.8574<240.7 484.3>
VStem: 240.7 243.6<82.8574 165.714 248.571 331.429>
LayerCount: 2
Fore
SplineSet
484.299804688 331.428710938 m 1
 484.299804688 248.571289062 l 1
 240.700195312 248.571289062 l 1
 240.700195312 331.428710938 l 1
 484.299804688 331.428710938 l 1
484.299804688 165.713867188 m 1
 484.299804688 82.857421875 l 1
 240.700195312 82.857421875 l 1
 240.700195312 165.713867188 l 1
 484.299804688 165.713867188 l 1
EndSplineSet
Validated: 1
EndChar
StartChar: uniA78B
Encoding: 42891 42891 406
Width: 725
VWidth: 0
Flags: W
HStem: 560 20G<321.9 403.1> 560 20G<321.9 403.1>
VStem: 321.9 81.1992<248.571 580>
LayerCount: 2
Fore
SplineSet
403.099609375 580 m 1xa0
 403.099609375 248.571289062 l 1
 321.900390625 248.571289062 l 1
 321.900390625 580 l 1
 403.099609375 580 l 1xa0
EndSplineSet
Validated: 1
EndChar
StartChar: uniA7F7
Encoding: 42999 42999 402
Width: 725
VWidth: 0
Flags: W
HStem: 82.8574 414.285<58 667>
LayerCount: 2
Fore
SplineSet
58 82.857421875 m 1
 58 497.142578125 l 1
 667 497.142578125 l 1
 667 82.857421875 l 1
 58 82.857421875 l 1
EndSplineSet
Validated: 1
EndChar
